<svg xmlns="http://www.w3.org/2000/svg" xmlns:xlink="http://www.w3.org/1999/xlink" stroke-miterlimit="10" stroke-linecap="square" stroke="none" fill="none" viewBox="158.74015748031496 176.04000000000002 656.5579302587176 128.51999999999998" version="1.1" style="max-height: 500px" width="656.5579302587176" height="128.51999999999998"><clipPath id="g3cf69be4bba_0_0.0"><path clip-rule="nonzero" d="m0 0l960.0 0l0 540.0l-960.0 0l0 -540.0z"/></clipPath><g clip-path="url(#g3cf69be4bba_0_0.0)"><path fill-rule="evenodd" d="m0 0l960.0 0l0 540.0l-960.0 0z" fill-opacity="0.0" fill="#000000"/><defs><linearGradient y2="11.897488213370476" x2="31.891373448869505" y1="11.897488213370476" x1="6.781277738616149" spreadMethod="pad" gradientTransform="matrix(25.110095710253354 0.0 0.0 25.110095710253354 0.0 0.0)" gradientUnits="userSpaceOnUse" id="g3cf69be4bba_0_0.1"><stop stop-color="#f8297b" offset="0.0"/><stop stop-color="#fb3b5b" offset="0.5"/><stop stop-color="#fc5135" offset="0.75"/><stop stop-color="#fd5729" offset="0.88"/><stop stop-color="#fd5729" offset="1.0"/></linearGradient></defs><path fill-rule="evenodd" d="m214.09044 186.11053c-4.1228333 0.08030701 -8.259064 0.716156 -12.408691 1.9075165c-4.1496124 1.1913605 -8.09845 2.9382477 -11.846481 5.2406464c-3.7346497 2.302414 -7.061035 5.18042 -9.9791565 8.634018c-2.918106 3.4536133 -5.247238 7.4627533 -6.9874115 12.027405c-1.7267761 4.5646515 -2.5901642 9.68483 -2.5901642 15.360535c0 5.756012 0.86338806 11.003357 2.5901642 15.742035c1.7401733 4.725281 4.0693054 8.8749695 6.9874115 12.449051c2.9181213 3.5740967 6.2645874 6.579254 10.039398 9.015533c3.788208 2.422882 7.73703 4.2299805 11.846481 5.421356c4.1094666 1.1913757 8.178772 1.7870483 12.207901 1.7870483c4.2834625 0 7.9444885 -0.4350586 10.983093 -1.3051453c3.0519714 -0.85672 5.501587 -1.800415 7.348831 -2.8311462c1.8472443 -1.0307312 3.098816 -1.7468872 3.7547302 -2.148468c1.3252106 -0.7496338 2.5834808 -1.6331177 3.7748108 -2.6504517c1.1913452 -1.0307312 1.827179 -2.289032 1.907486 -3.7748718c0.080322266 -0.8968811 -0.046844482 -1.7535706 -0.38150024 -2.5701294c-0.32125854 -0.82995605 -0.7696686 -1.7000427 -1.3452759 -2.6102905c-0.91023254 -1.4724731 -1.8405304 -2.5366669 -2.7909393 -3.1925812c-0.937027 -0.6693115 -1.9008026 -1.003952 -2.8913574 -1.003952c-0.8968506 0 -1.7602386 0.24763489 -2.5901642 0.7429199c-0.8165436 0.49528503 -1.6799316 1.030716 -2.590149 1.6063385c-0.7362366 0.41496277 -1.827179 1.0106354 -3.2728424 1.7870331c-1.4322815 0.7763977 -3.1590576 1.432312 -5.1803284 1.9677429c-2.0078888 0.5354614 -4.4106445 0.80319214 -7.2082825 0.80319214c-3.5338745 0 -6.9874268 -0.6157837 -10.360657 -1.84729c-3.37323 -1.2315216 -6.3984528 -3.058731 -9.075607 -5.481598c-2.6637878 -2.4362793 -4.7787476 -5.441452 -6.3448944 -9.015533c-1.5661469 -3.5740814 -2.349228 -7.6635284 -2.349228 -12.268341c0 -4.6048126 0.78308105 -8.69426 2.349228 -12.268356c1.5661469 -3.5874634 3.6811066 -6.592636 6.3448944 -9.015518c2.6771545 -2.422882 5.7023773 -4.2500916 9.075607 -5.481598c3.37323 -1.2449188 6.826782 -1.8673706 10.360657 -1.8673706c2.9582672 0 5.4815063 0.29449463 7.569702 0.8834839c2.1015778 0.5756073 3.7881927 1.211441 5.059845 1.9075165c1.2850494 0.69607544 2.1752014 1.211441 2.6704865 1.5460968c1.1511688 0.7362366 2.1149597 1.3519897 2.8913422 1.8472748c0.77638245 0.49528503 1.61969 0.7429352 2.5299225 0.7429352c0.9905548 0 1.974411 -0.32795715 2.9515839 -0.9838867c0.99053955 -0.66929626 1.9810944 -1.7000275 2.9716644 -3.0921783c0.57559204 -0.8299408 1.0240173 -1.6331024 1.3452759 -2.4095001c0.33465576 -0.7763977 0.46180725 -1.6598663 0.38150024 -2.6504364c-0.080322266 -1.4858551 -0.716156 -2.7374573 -1.907486 -3.7548065c-1.1913452 -1.030716 -2.4496155 -1.9610596 -3.7748108 -2.790985c-0.6559143 -0.40159607 -1.9275665 -1.1177368 -3.814972 -2.148468c-1.8874054 -1.0307312 -4.3571014 -1.9945374 -7.409073 -2.8914032c-3.0385895 -0.9102478 -6.652771 -1.3653717 -10.842545 -1.3653717z" fill="url(#g3cf69be4bba_0_0.1)"/><defs><linearGradient y2="11.897488213370476" x2="31.891373448869505" y1="11.897488213370476" x1="6.781277738616149" spreadMethod="pad" gradientTransform="matrix(25.110095710253354 0.0 0.0 25.110095710253354 0.0 0.0)" gradientUnits="userSpaceOnUse" id="g3cf69be4bba_0_0.2"><stop stop-color="#f8297b" offset="0.0"/><stop stop-color="#fb3b5b" offset="0.5"/><stop stop-color="#fc5135" offset="0.75"/><stop stop-color="#fd5729" offset="0.88"/><stop stop-color="#fd5729" offset="1.0"/></linearGradient></defs><path fill-rule="evenodd" d="m277.98993 226.69044c2.797638 0 5.3275757 0.6826935 7.5897827 2.0480652c2.262207 1.3519897 4.089386 3.2193604 5.4815063 5.6020813c1.3921204 2.382721 2.0881958 5.1804047 2.0881958 8.393066c0 2.9583282 -0.6759949 5.6556244 -2.027954 8.091888c-1.3519592 2.422882 -3.138977 4.3303986 -5.361023 5.7225494c-2.2220764 1.3921509 -4.7319336 2.0882263 -7.5295715 2.0882263c-3.0385742 0 -5.7759705 -0.69607544 -8.212219 -2.0882263c-2.4228516 -1.3921509 -4.3370056 -3.2795868 -5.742523 -5.6623077c-1.3921204 -2.3961182 -2.0881958 -5.0733337 -2.0881958 -8.031647c0 -3.0386505 0.6759949 -5.769409 2.027954 -8.192291c1.3653564 -2.436264 3.23938 -4.3705444 5.6220703 -5.8028564c2.3826904 -1.4457092 5.100006 -2.1685486 8.151978 -2.1685486zm23.070526 -14.3164215c-2.4763794 0 -4.290161 0.47520447 -5.441345 1.4256134c-1.1511841 0.9504242 -1.7267761 2.3291779 -1.7267761 4.136307l0.7429199 3.5740814c-1.0708618 -1.4724579 -2.429535 -2.8846893 -4.075989 -4.2366943c-1.6330872 -1.3653717 -3.6275635 -2.4965057 -5.98349 -3.3933716c-2.3425293 -0.9102478 -5.200409 -1.365387 -8.573639 -1.365387c-3.7748108 0 -7.368927 0.8031769 -10.782318 2.4095001c-3.413391 1.5929413 -6.4385986 3.7882538 -9.075592 6.5859528c-2.623642 2.797699 -4.6984406 5.99028 -6.2244263 9.577744c-1.526001 3.5740814 -2.2889862 7.3757324 -2.2889862 11.404938c0 4.18985 0.7629852 8.118668 2.2889862 11.786453c1.5259857 3.6544037 3.5807037 6.900528 6.1641846 9.738388c2.5968323 2.8378296 5.6019897 5.0599365 9.015381 6.66626c3.413391 1.5929565 7.047638 2.3894043 10.902771 2.3894043c3.6275635 0 6.7130127 -0.5555115 9.256317 -1.666565c2.5567017 -1.1110535 4.6114197 -2.382721 6.1641846 -3.815033c1.5661316 -1.4456787 2.6771545 -2.7039795 3.3330688 -3.7748718l0 0l-0.8633728 4.07605c0 1.5661926 0.57559204 2.8043823 1.7267761 3.7146606c1.1511841 0.8968506 2.9248047 1.3453064 5.320862 1.3453064c2.3023987 0 3.9622498 -0.3279724 4.979553 -0.9838867c1.0307007 -0.6559143 1.6665344 -1.5594788 1.9074707 -2.7106934c0.2543335 -1.1511841 0.38150024 -2.4295654 0.38150024 -3.8351135l0 -45.137863c0 -1.4858551 -0.12716675 -2.824463 -0.38150024 -4.0158234c-0.24093628 -1.1913605 -0.85668945 -2.135086 -1.847229 -2.8311615c-0.97717285 -0.7094574 -2.6169434 -1.0641937 -4.9193115 -1.0641937z" fill="url(#g3cf69be4bba_0_0.2)"/><defs><linearGradient y2="11.897488213370476" x2="31.891373448869505" y1="11.897488213370476" x1="6.781277738616149" spreadMethod="pad" gradientTransform="matrix(25.110095710253354 0.0 0.0 25.110095710253354 0.0 0.0)" gradientUnits="userSpaceOnUse" id="g3cf69be4bba_0_0.3"><stop stop-color="#f8297b" offset="0.0"/><stop stop-color="#fb3b5b" offset="0.5"/><stop stop-color="#fc5135" offset="0.75"/><stop stop-color="#fd5729" offset="0.88"/><stop stop-color="#fd5729" offset="1.0"/></linearGradient></defs><path fill-rule="evenodd" d="m348.66592 226.81091c2.8779602 0 5.448059 0.70277405 7.710266 2.108307c2.262207 1.3921509 4.0693054 3.2862854 5.4212646 5.6824036c1.3653564 2.3827057 2.0480347 5.13356 2.0480347 8.252518c0 3.0386353 -0.6826782 5.756012 -2.0480347 8.152115c-1.3519592 2.382721 -3.1590576 4.2500916 -5.4212646 5.6020813c-2.262207 1.3519897 -4.832306 2.0279846 -7.710266 2.0279846c-2.797638 0 -5.3677063 -0.6759949 -7.7102356 -2.0279846c-2.3425293 -1.3519897 -4.196472 -3.2193604 -5.5618286 -5.6020813c-1.3519592 -2.396103 -2.027954 -5.1134796 -2.027954 -8.152115c0 -3.1189575 0.6759949 -5.8898773 2.027954 -8.312759c1.3653564 -2.436264 3.1992188 -4.3303986 5.501587 -5.6823883c2.3023682 -1.365387 4.892517 -2.0480804 7.7704773 -2.0480804zm22.709106 -42.186234c-2.222046 0 -3.8484192 0.34803772 -4.87912 1.0441132c-1.0307312 0.69607544 -1.6464844 1.5996246 -1.8472595 2.710678c-0.20077515 1.1110382 -0.30117798 2.369339 -0.30117798 3.7748718l0 27.954575l0 0c-1.9953308 -2.2388458 -4.3445435 -4.0340424 -7.0476685 -5.3856354c-3.1188965 -1.5661774 -6.652771 -2.3492584 -10.601593 -2.3492584c-3.6944885 0 -7.228363 0.78308105 -10.601593 2.3492584c-3.37323 1.5661774 -6.3582764 3.7280273 -8.955139 6.485565c-2.5834656 2.7575226 -4.6181335 5.963501 -6.103943 9.617889c-1.4858398 3.6544037 -2.2287598 7.5430603 -2.2287598 11.66597c0 4.270157 0.7429199 8.279297 2.2287598 12.027405c1.4858093 3.7347107 3.5003967 6.980835 6.043701 9.738373c2.5567017 2.7575378 5.514984 4.9193726 8.874817 6.485565c3.3732605 1.5527954 6.9539795 2.3291626 10.742157 2.3291626c4.0291443 0 7.6232605 -0.79644775 10.782318 -2.3894043c2.6291504 -1.3312378 4.9181213 -3.0715942 6.8669434 -5.2210693l0 0l0 2.691101c0.32125854 1.7268066 1.0173035 2.9783936 2.0881958 3.7547913c1.0708618 0.7763977 2.7574768 1.1645813 5.059845 1.1645813c2.3023682 0 3.9689026 -0.3279419 4.9996033 -0.9838562c1.0307312 -0.6559143 1.666565 -1.5594788 1.9075012 -2.7106934c0.24093628 -1.1512146 0.36141968 -2.422882 0.36141968 -3.815033l0 -73.529755c0 -1.4055481 -0.14724731 -2.6638336 -0.44174194 -3.7748718c-0.2810974 -1.1110535 -0.91693115 -1.9945374 -1.9074707 -2.6504517c-0.97717285 -0.6559143 -2.6571045 -0.98387146 -5.039795 -0.98387146z" fill="url(#g3cf69be4bba_0_0.3)"/><defs><linearGradient y2="11.897488213370476" x2="31.891373448869505" y1="11.897488213370476" x1="6.781277738616149" spreadMethod="pad" gradientTransform="matrix(25.110095710253354 0.0 0.0 25.110095710253354 0.0 0.0)" gradientUnits="userSpaceOnUse" id="g3cf69be4bba_0_0.4"><stop stop-color="#f8297b" offset="0.0"/><stop stop-color="#fb3b5b" offset="0.5"/><stop stop-color="#fc5135" offset="0.75"/><stop stop-color="#fd5729" offset="0.88"/><stop stop-color="#fd5729" offset="1.0"/></linearGradient></defs><path fill-rule="evenodd" d="m419.60025 226.81091c2.8779602 0 5.4480286 0.70277405 7.7102356 2.108307c2.262207 1.3921509 4.0693054 3.2862854 5.4212646 5.6824036c1.3653564 2.3827057 2.0480347 5.13356 2.0480347 8.252518c0 3.0386353 -0.6826782 5.756012 -2.0480347 8.152115c-1.3519592 2.382721 -3.1590576 4.2500916 -5.4212646 5.6020813c-2.262207 1.3519897 -4.8322754 2.0279846 -7.7102356 2.0279846c-2.797638 0 -5.367737 -0.6759949 -7.710266 -2.0279846c-2.3425293 -1.3519897 -4.196472 -3.2193604 -5.5618286 -5.6020813c-1.3519592 -2.396103 -2.027954 -5.1134796 -2.027954 -8.152115c0 -3.1189575 0.6759949 -5.8898773 2.027954 -8.312759c1.3653564 -2.436264 3.1992188 -4.3303986 5.501587 -5.6823883c2.3023682 -1.365387 4.8925476 -2.0480804 7.770508 -2.0480804zm22.709106 -42.186234c-2.2220764 0 -3.8484497 0.34803772 -4.8791504 1.0441132c-1.0307312 0.69607544 -1.6464539 1.5996246 -1.8472595 2.710678c-0.20077515 1.1110382 -0.30117798 2.369339 -0.30117798 3.7748718l0 27.954575l0 0c-1.9953003 -2.2388458 -4.3445435 -4.0340424 -7.047638 -5.3856354c-3.118927 -1.5661774 -6.652771 -2.3492584 -10.601624 -2.3492584c-3.6944885 0 -7.228363 0.78308105 -10.601593 2.3492584c-3.37323 1.5661774 -6.3582764 3.7280273 -8.955139 6.485565c-2.5834656 2.7575226 -4.618103 5.963501 -6.103943 9.617889c-1.4858398 3.6544037 -2.2287292 7.5430603 -2.2287292 11.66597c0 4.270157 0.7428894 8.279297 2.2287292 12.027405c1.4858398 3.7347107 3.5003967 6.980835 6.043701 9.738373c2.5567017 2.7575378 5.514984 4.9193726 8.874847 6.485565c3.37323 1.5527954 6.953949 2.3291626 10.742126 2.3291626c4.0291443 0 7.6232605 -0.79644775 10.782318 -2.3894043c2.6291504 -1.3312378 4.9181213 -3.0715942 6.8669434 -5.2210693l0 0l0 2.691101c0.32125854 1.7268066 1.017334 2.9783936 2.0881958 3.7547913c1.0708618 0.7763977 2.7574768 1.1645813 5.059845 1.1645813c2.3023682 0 3.9689026 -0.3279419 4.999634 -0.9838562c1.0307007 -0.6559143 1.6665344 -1.5594788 1.9074707 -2.7106934c0.24093628 -1.1512146 0.36141968 -2.422882 0.36141968 -3.815033l0 -73.529755c0 -1.4055481 -0.14724731 -2.6638336 -0.44174194 -3.7748718c-0.2810974 -1.1110535 -0.91693115 -1.9945374 -1.9074707 -2.6504517c-0.97717285 -0.6559143 -2.6571045 -0.98387146 -5.0397644 -0.98387146z" fill="url(#g3cf69be4bba_0_0.4)"/><defs><linearGradient y2="11.897488213370476" x2="31.891373448869505" y1="11.897488213370476" x1="6.781277738616149" spreadMethod="pad" gradientTransform="matrix(25.110095710253354 0.0 0.0 25.110095710253354 0.0 0.0)" gradientUnits="userSpaceOnUse" id="g3cf69be4bba_0_0.5"><stop stop-color="#f8297b" offset="0.0"/><stop stop-color="#fb3b5b" offset="0.5"/><stop stop-color="#fc5135" offset="0.75"/><stop stop-color="#fd5729" offset="0.88"/><stop stop-color="#fd5729" offset="1.0"/></linearGradient></defs><path fill-rule="evenodd" d="m507.54163 211.57692c-0.5609741 0 -1.0518494 0.084991455 -1.4725342 0.25497437c-1.3118286 0.53544617 -2.5433044 2.1150055 -3.6944885 4.7386627l-13.276367 29.75293l0 0l-19.652863 -30.616333c-1.4858093 -2.3023987 -2.9515686 -3.6142426 -4.3972473 -3.935501c-0.25216675 -0.058914185 -0.5215454 -0.088378906 -0.808136 -0.088378906c-1.3412781 0 -3.0596924 0.6452179 -5.155243 1.9356537c-2.3023682 1.3921509 -3.6007996 2.8311615 -3.8952942 4.3170166c-0.2810974 1.4858551 0.3145752 3.33313 1.7870178 5.5418396l25.10318 38.574707l0 0l-11.529938 25.839111c-1.1511841 2.382721 -1.5192871 4.2902527 -1.1043396 5.7225647c0.41497803 1.4457092 1.9342651 2.7441406 4.557892 3.8953552c1.9474182 0.8250122 3.533905 1.2375488 4.75943 1.2375488c0.4845276 0 0.91259766 -0.06448364 1.2843018 -0.19345093c1.3251953 -0.45510864 2.5232239 -1.9945068 3.5940857 -4.6181946l32.065826 -71.682465c1.0708618 -2.3827362 1.3787231 -4.270172 0.923645 -5.662323c-0.45513916 -1.4055328 -1.9543457 -2.6839142 -4.4976807 -3.8351135c-1.8546753 -0.7857361 -3.3851013 -1.1786041 -4.5912476 -1.1786041z" fill="url(#g3cf69be4bba_0_0.5)"/><defs><linearGradient y2="11.897488213370476" x2="31.891373448869505" y1="11.897488213370476" x1="6.781277738616149" spreadMethod="pad" gradientTransform="matrix(25.110095710253354 0.0 0.0 25.110095710253354 0.0 0.0)" gradientUnits="userSpaceOnUse" id="g3cf69be4bba_0_0.6"><stop stop-color="#f8297b" offset="0.0"/><stop stop-color="#fb3b5b" offset="0.5"/><stop stop-color="#fc5135" offset="0.75"/><stop stop-color="#fd5729" offset="0.88"/><stop stop-color="#fd5729" offset="1.0"/></linearGradient></defs><path fill-rule="evenodd" d="m533.7214 186.97394c-2.3023682 0 -3.9889526 0.34803772 -5.0598755 1.0441132c-1.0708618 0.69607544 -1.75354 1.5996246 -2.0480347 2.710678c-0.2810669 1.1110382 -0.42163086 2.3224792 -0.42163086 3.6343231l0 71.20058c0 1.3921509 0.14056396 2.6638489 0.42163086 3.815033c0.29449463 1.1512146 0.97717285 2.054779 2.0480347 2.7106934c1.0709229 0.6559143 2.677185 0.9838562 4.8189087 0.9838562c2.3023682 0 3.9822998 -0.3279419 5.039795 -0.9838562c1.0708618 -0.6559143 1.7468872 -1.5594788 2.027954 -2.7106934c0.29449463 -1.1512146 0.44171143 -2.3425598 0.44171143 -3.5740967l0 -53.16951l22.327637 32.307312c0.41497803 0.49528503 0.8499756 0.99057007 1.3051147 1.4858551c0.45513916 0.49528503 1.0909424 0.95040894 1.9074707 1.365387c0.82995605 0.4015808 1.9008179 0.6023712 3.2126465 0.6023712c1.3920898 0 2.49646 -0.2007904 3.3129883 -0.6023712c0.829895 -0.41497803 1.4924927 -0.8901825 1.987793 -1.4256287c0.4953003 -0.5354309 0.8634033 -0.9637909 1.1043091 -1.2850647l22.4682 -32.44786l0 52.928574c0 1.3118286 0.14050293 2.5433655 0.42163086 3.6945496c0.29449463 1.1512146 0.970459 2.0748596 2.027954 2.770935c1.0708618 0.69607544 2.7173462 1.0440979 4.939392 1.0440979c2.3023682 0 3.9889526 -0.3279419 5.0598755 -0.9838562c1.0708618 -0.6559143 1.7468262 -1.5594788 2.027954 -2.7106934c0.2944336 -1.1512146 0.44171143 -2.3425598 0.44171143 -3.5740967l0 -71.18048c0 -1.4055481 -0.14727783 -2.6839142 -0.44171143 -3.8351135c-0.28112793 -1.1512146 -0.9570923 -2.0748444 -2.027954 -2.7709198c-1.0709229 -0.69607544 -2.7173462 -1.0441132 -4.939392 -1.0441132c-1.4724731 0 -2.6638184 0.08030701 -3.5740356 0.24093628c-0.8968506 0.16064453 -1.6330566 0.40827942 -2.2086792 0.7429352c-0.5755615 0.33465576 -1.1511841 0.8299408 -1.7267456 1.4858551l-28.812256 40.19626l-28.69342 -40.07579c-0.48187256 -0.57559204 -0.970459 -1.0441132 -1.4657593 -1.4055328c-0.49523926 -0.37480164 -1.1779175 -0.6626129 -2.0480347 -0.8634033c-0.85668945 -0.21417236 -2.1483765 -0.32125854 -3.875183 -0.32125854z" fill="url(#g3cf69be4bba_0_0.6)"/><defs><linearGradient y2="11.897488213370476" x2="31.891373448869505" y1="11.897488213370476" x1="6.781277738616149" spreadMethod="pad" gradientTransform="matrix(25.110095710253354 0.0 0.0 25.110095710253354 0.0 0.0)" gradientUnits="userSpaceOnUse" id="g3cf69be4bba_0_0.7"><stop stop-color="#f8297b" offset="0.0"/><stop stop-color="#fb3b5b" offset="0.5"/><stop stop-color="#fc5135" offset="0.75"/><stop stop-color="#fd5729" offset="0.88"/><stop stop-color="#fd5729" offset="1.0"/></linearGradient></defs><path fill-rule="evenodd" d="m653.2632 226.69044c2.7976074 0 5.3275146 0.6826935 7.5897827 2.0480652c2.262207 1.3519897 4.0893555 3.2193604 5.4815063 5.6020813c1.3920898 2.382721 2.0881958 5.1804047 2.0881958 8.393066c0 2.9583282 -0.6760254 5.6556244 -2.027954 8.091888c-1.3519897 2.422882 -3.138977 4.3303986 -5.361084 5.7225494c-2.222046 1.3921509 -4.7318726 2.0882263 -7.529541 2.0882263c-3.0385742 0 -5.776001 -0.69607544 -8.212219 -2.0882263c-2.4228516 -1.3921509 -4.336975 -3.2795868 -5.7424927 -5.6623077c-1.3921509 -2.3961182 -2.0881958 -5.0733337 -2.0881958 -8.031647c0 -3.0386505 0.67596436 -5.769409 2.027954 -8.192291c1.3653564 -2.436264 3.23938 -4.3705444 5.6220093 -5.8028564c2.3826904 -1.4457092 5.1000366 -2.1685486 8.152039 -2.1685486zm23.070496 -14.3164215c-2.4763794 0 -4.290161 0.47520447 -5.441345 1.4256134c-1.1511841 0.9504242 -1.7268066 2.3291779 -1.7268066 4.136307l0.7429199 3.5740814c-1.0708618 -1.4724579 -2.4295044 -2.8846893 -4.075989 -4.2366943c-1.6330566 -1.3653717 -3.6275024 -2.4965057 -5.9834595 -3.3933716c-2.3425293 -0.9102478 -5.2003784 -1.365387 -8.573608 -1.365387c-3.7748413 0 -7.3689575 0.8031769 -10.782349 2.4095001c-3.413391 1.5929413 -6.4385986 3.7882538 -9.075623 6.5859528c-2.6235962 2.797699 -4.6984253 5.99028 -6.2244263 9.577744c-1.52594 3.5740814 -2.2889404 7.3757324 -2.2889404 11.404938c0 4.18985 0.7630005 8.118668 2.2889404 11.786453c1.526001 3.6544037 3.5807495 6.900528 6.1641846 9.738388c2.5968628 2.8378296 5.6019897 5.0599365 9.015381 6.66626c3.413391 1.5929565 7.0476685 2.3894043 10.902832 2.3894043c3.6275635 0 6.7130127 -0.5555115 9.256287 -1.666565c2.5567017 -1.1110535 4.611389 -2.382721 6.1641846 -3.815033c1.5661621 -1.4456787 2.677185 -2.7039795 3.3330688 -3.7748718l0 0l-0.8634033 4.07605c0 1.5661926 0.57562256 2.8043823 1.7268066 3.7146606c1.1511841 0.8968506 2.9248047 1.3453064 5.320862 1.3453064c2.3023682 0 3.9622192 -0.3279724 4.979553 -0.9838867c1.0307007 -0.6559143 1.666565 -1.5594788 1.9074707 -2.7106934c0.2543335 -1.1511841 0.38153076 -2.4295654 0.38153076 -3.8351135l0 -45.137863c0 -1.4858551 -0.12719727 -2.824463 -0.38153076 -4.0158234c-0.24090576 -1.1913605 -0.85668945 -2.135086 -1.847229 -2.8311615c-0.97717285 -0.7094574 -2.6169434 -1.0641937 -4.9193115 -1.0641937z" fill="url(#g3cf69be4bba_0_0.7)"/><defs><linearGradient y2="11.897488213370476" x2="31.891373448869505" y1="11.897488213370476" x1="6.781277738616149" spreadMethod="pad" gradientTransform="matrix(25.110095710253354 0.0 0.0 25.110095710253354 0.0 0.0)" gradientUnits="userSpaceOnUse" id="g3cf69be4bba_0_0.8"><stop stop-color="#f8297b" offset="0.0"/><stop stop-color="#fb3b5b" offset="0.5"/><stop stop-color="#fc5135" offset="0.75"/><stop stop-color="#fd5729" offset="0.88"/><stop stop-color="#fd5729" offset="1.0"/></linearGradient></defs><path fill-rule="evenodd" d="m710.3659 192.03387c-2.2086792 0 -3.8283691 0.3078766 -4.85907 0.92362976c-1.0307007 0.61576843 -1.6932983 1.4590912 -1.987793 2.5299835c-0.28112793 1.0708771 -0.4216919 2.3425598 -0.4216919 3.815033l0 14.36438l0 0l-5.0598145 -0.047973633c-1.9677124 0 -3.4268188 0.55552673 -4.3771973 1.666565c-0.9503784 1.1110535 -1.4255981 2.8579407 -1.4255981 5.2406616c0 2.5433502 0.3881836 4.3705597 1.1645508 5.481598c0.7897949 1.1110382 2.215393 1.7067261 4.2767944 1.7870483l5.4212646 -0.047698975l0 0l0 23.861542c0 3.7882538 0.42834473 7.061157 1.2850342 9.818695c0.8701172 2.7575378 2.2086792 4.999695 4.015808 6.7265015c1.8070679 1.7268066 4.149597 2.9984741 7.027527 3.815033c2.8779907 0.81655884 6.331543 1.224823 10.360657 1.224823c1.3251953 0 2.543335 -0.1204834 3.654358 -0.36141968c1.111023 -0.2409668 2.0145874 -0.87680054 2.7106323 -1.9075317c0.6960449 -1.0307312 1.0440674 -2.6972961 1.0440674 -4.999695c0 -2.1417542 -0.28778076 -3.6811523 -0.8633423 -4.6181946c-0.57562256 -0.95040894 -1.4189453 -1.5460815 -2.5299683 -1.7870483c-1.111023 -0.2543335 -2.449585 -0.38150024 -4.015747 -0.38150024c-1.4724121 0 -2.723999 -0.10040283 -3.7546997 -0.30117798c-1.0307007 -0.21417236 -1.8539429 -0.58898926 -2.4697266 -1.1244507c-0.61572266 -0.5354309 -1.0708618 -1.3319092 -1.3653564 -2.3894043c-0.2810669 -1.0708923 -0.42163086 -2.4697266 -0.42163086 -4.196533l0 -23.351242l0 0l10.11969 0.15985107c1.3921509 0 2.6236572 -0.1405487 3.694519 -0.42166138c1.0708618 -0.29449463 1.9342651 -0.9771881 2.590149 -2.0480652c0.6559448 -1.0708923 0.9838867 -2.6772156 0.9838867 -4.8190002c0 -2.3023987 -0.3279419 -3.968979 -0.9838867 -4.999695c-0.6558838 -1.0307312 -1.5393677 -1.6866455 -2.6503906 -1.9677582c-1.111023 -0.29449463 -2.3626099 -0.44174194 -3.7547607 -0.44174194l-9.999207 0.2947998l0 0l0 -14.229706c0 -1.3118439 -0.1472168 -2.523285 -0.44171143 -3.6343231c-0.28112793 -1.1110535 -0.93707275 -1.9945374 -1.9677734 -2.6504517c-1.017334 -0.6559143 -2.683838 -0.98387146 -4.9995728 -0.98387146z" fill="url(#g3cf69be4bba_0_0.8)"/><defs><linearGradient y2="11.897488213370476" x2="31.891373448869505" y1="11.897488213370476" x1="6.781277738616149" spreadMethod="pad" gradientTransform="matrix(25.110095710253354 0.0 0.0 25.110095710253354 0.0 0.0)" gradientUnits="userSpaceOnUse" id="g3cf69be4bba_0_0.9"><stop stop-color="#f8297b" offset="0.0"/><stop stop-color="#fb3b5b" offset="0.5"/><stop stop-color="#fc5135" offset="0.75"/><stop stop-color="#fd5729" offset="0.88"/><stop stop-color="#fd5729" offset="1.0"/></linearGradient></defs><path fill-rule="evenodd" d="m773.5284 224.96364c2.637024 0 4.939392 0.43504333 6.9071045 1.3051453c1.9811401 0.8567047 3.5473022 2.0480652 4.6984863 3.5740814c1.151123 1.512619 1.7267456 3.219345 1.7267456 5.120178c0 1.4724731 -0.3748169 2.436264 -1.1243896 2.891388c-0.7362671 0.4551239 -1.800415 0.6826935 -3.192566 0.6826935l-25.299255 0c0 -2.5433502 0.72283936 -4.845764 2.168518 -6.9072113c1.4456787 -2.0614624 3.4000244 -3.6878815 5.862976 -4.8792267c2.4630127 -1.1913605 5.213806 -1.7870483 8.25238 -1.7870483zm0.14056396 -13.071518c-6.2511597 0 -11.786255 1.3185425 -16.605164 3.955597c-4.805481 2.6236725 -8.566895 6.237915 -11.284241 10.842728c-2.7173462 4.6048126 -4.075989 9.872223 -4.075989 15.802261c0 4.0292206 0.67596436 7.917862 2.027954 11.665985c1.3653564 3.7347107 3.3798828 7.1013184 6.043701 10.0997925c2.677185 2.9984741 6.010254 5.3611145 9.999207 7.087921c3.9890137 1.7268066 8.660706 2.59021 14.015015 2.59021c4.845703 0 9.055542 -0.4751892 12.629578 -1.4255981c3.5874023 -0.93704224 6.364929 -2.121704 8.332703 -3.554016c1.9810791 -1.4457092 2.9716187 -2.9917908 2.9716187 -4.638275c0 -0.6559143 -0.107055664 -1.3319092 -0.32122803 -2.0279846c-0.20080566 -0.70947266 -0.5488281 -1.4724731 -1.0441284 -2.289032c-0.5755615 -1.2315063 -1.3184814 -2.0949097 -2.2287598 -2.59021c-0.7716675 -0.42617798 -1.5483398 -0.6392517 -2.329956 -0.6392517c-0.12677002 0 -0.2536621 0.005584717 -0.38067627 0.016815186c-0.6558838 0.08029175 -1.3519897 0.28778076 -2.0881958 0.6224365c-0.73620605 0.33465576 -1.5393677 0.70947266 -2.4094238 1.1244202c-0.85668945 0.40161133 -1.8606567 0.7897949 -3.0118408 1.1646118c-1.1511841 0.36141968 -2.5299072 0.6693115 -4.1362305 0.923645c-1.6062622 0.24093628 -3.4401245 0.36141968 -5.501587 0.36141968c-2.7039185 0 -5.354309 -0.555542 -7.951172 -1.666565c-2.583496 -1.1110535 -4.718506 -2.6906128 -6.4051514 -4.738678c-1.6865845 -2.0614624 -2.5767822 -4.491028 -2.6704712 -7.288727l32.56781 0c3.1322632 0 5.7424927 -0.98387146 7.8306885 -2.9516296c2.1016235 -1.9811401 3.1524048 -5.146942 3.1524048 -9.497437c0 -2.5567322 -0.5957031 -5.1871033 -1.7870483 -7.891083c-1.1912842 -2.7173767 -2.9180908 -5.207199 -5.180298 -7.4694366c-2.262207 -2.2622528 -5.079956 -4.0894623 -8.453186 -5.481613c-3.37323 -1.4055328 -7.2752075 -2.108307 -11.705933 -2.108307z" fill="url(#g3cf69be4bba_0_0.9)"/></g></svg>